<?xml version="1.0" encoding="UTF-8"?>
<svg version="1.1" xmlns="http://www.w3.org/2000/svg" width="512" height="512">
<path d="M0 0 C1.01201477 0.00054382 2.02402954 0.00108765 3.06671143 0.00164795 C19.60117395 0.0423949 35.52064864 0.96613093 51.75 4.375 C52.76529785 4.58398926 53.7805957 4.79297852 54.82666016 5.00830078 C96.28490747 13.81727104 134.56952772 32.87621971 166.75 60.375 C167.49894531 61.01179688 168.24789063 61.64859375 169.01953125 62.3046875 C182.51520621 74.12202468 195.18558025 86.86051588 205.75 101.375 C206.60649066 102.52494831 207.46326433 103.67468589 208.3203125 104.82421875 C214.3609414 113.01589526 219.72005071 121.53145078 224.75 130.375 C225.11448242 131.00680176 225.47896484 131.63860352 225.85449219 132.28955078 C240.78473018 158.37464001 250.26385054 187.71085114 254.75 217.375 C254.92660156 218.49745117 255.10320312 219.61990234 255.28515625 220.77636719 C256.94203102 232.38928412 257.14980686 243.90693562 257.125 255.625 C257.12368576 257.14451767 257.12368576 257.14451767 257.12234497 258.69473267 C256.95177475 318.63806569 236.02540029 376.84462855 196.75 422.375 C196.11578125 423.12007813 195.4815625 423.86515625 194.828125 424.6328125 C183.01698485 438.13779833 170.26639772 450.80918743 155.75 461.375 C154.60005169 462.23149066 153.45031411 463.08826433 152.30078125 463.9453125 C144.10910474 469.9859414 135.59354922 475.34505071 126.75 480.375 C126.11819824 480.73948242 125.48639648 481.10396484 124.83544922 481.47949219 C91.42891806 500.60028017 51.28735779 512.38826765 12.703125 512.578125 C11.77062927 512.58382507 10.83813354 512.58952515 9.87738037 512.59539795 C7.91094065 512.60478439 5.94448565 512.6113564 3.97802734 512.61523438 C1.0488534 512.6248398 -1.87958674 512.65588313 -4.80859375 512.6875 C-18.18557076 512.76252464 -31.06068295 511.58098791 -44.25 509.375 C-45.38711426 509.18679688 -46.52422852 508.99859375 -47.69580078 508.8046875 C-90.96254743 501.03594323 -132.0143125 481.04476238 -165.25 452.375 C-165.99507813 451.74078125 -166.74015625 451.1065625 -167.5078125 450.453125 C-181.01279833 438.64198485 -193.68418743 425.89139772 -204.25 411.375 C-205.10649066 410.22505169 -205.96326433 409.07531411 -206.8203125 407.92578125 C-212.86034209 399.73565742 -218.24367614 391.23120382 -223.25 382.375 C-223.6521875 381.66778809 -224.054375 380.96057617 -224.46875 380.23193359 C-237.4941741 357.09654164 -246.24301461 331.92537591 -251.5625 305.9375 C-251.70985596 305.21860596 -251.85721191 304.49971191 -252.0090332 303.7590332 C-254.96015207 288.23237908 -255.65707988 272.83186592 -255.625 257.0625 C-255.62445618 256.05298279 -255.62391235 255.04346558 -255.62335205 254.00335693 C-255.58257156 237.48791047 -254.65494321 221.58566065 -251.25 205.375 C-251.04101074 204.35970215 -250.83202148 203.3444043 -250.61669922 202.29833984 C-241.83880189 160.98633315 -222.83613066 122.3544774 -195.25 90.375 C-194.61578125 89.62992187 -193.9815625 88.88484375 -193.328125 88.1171875 C-181.51698485 74.61220167 -168.76639772 61.94081257 -154.25 51.375 C-153.10005169 50.51850934 -151.95031411 49.66173567 -150.80078125 48.8046875 C-142.60910474 42.7640586 -134.09354922 37.40494929 -125.25 32.375 C-124.61819824 32.01051758 -123.98639648 31.64603516 -123.33544922 31.27050781 C-97.25035999 16.34026982 -67.91414886 6.86114946 -38.25 2.375 C-37.12754883 2.19839844 -36.00509766 2.02179687 -34.84863281 1.83984375 C-23.23552257 0.1829414 -11.71820055 -0.02373513 0 0 Z M-167.625 107.625 C-175.16906376 117.28482101 -175.40730756 128.55384555 -175.453125 140.2578125 C-175.45882507 141.39024384 -175.46452515 142.52267517 -175.47039795 143.68942261 C-175.47981291 146.07467727 -175.48636794 148.45994473 -175.49023438 150.84521484 C-175.49998582 154.49469401 -175.53106127 158.14362043 -175.5625 161.79296875 C-175.56902638 164.11458 -175.57427828 166.43619526 -175.578125 168.7578125 C-175.5904718 169.84748322 -175.6028186 170.93715393 -175.61553955 172.05984497 C-175.72133291 179.26185132 -175.72133291 179.26185132 -172.25 185.375 C-169.85648505 186.53710219 -169.85648505 186.53710219 -167.25 186.375 C-165.02702638 185.28206419 -165.02702638 185.28206419 -163.25 183.375 C-162.6533924 180.88621859 -162.6533924 180.88621859 -162.75170898 178.03662109 C-162.74167343 176.9447348 -162.73163788 175.85284851 -162.72129822 174.72787476 C-162.72948074 173.54666046 -162.73766327 172.36544617 -162.74609375 171.1484375 C-162.7319619 169.32235458 -162.7319619 169.32235458 -162.71754456 167.4593811 C-162.68880183 163.55608447 -162.68581854 159.65339408 -162.6875 155.75 C-162.68388738 151.86811706 -162.6742598 147.98667961 -162.64674377 144.10488892 C-162.63002205 141.68858416 -162.62702677 139.27213353 -162.63975525 136.85580444 C-162.59052456 128.91126065 -161.72373776 122.29885989 -157.4375 115.5 C-152.21099899 110.42282759 -146.18087117 109.25362495 -139.13086319 109.24357224 C-137.60897869 109.23781052 -137.60897869 109.23781052 -136.05634904 109.2319324 C-134.39484146 109.23323213 -134.39484146 109.23323213 -132.69976807 109.23455811 C-131.51761585 109.23158698 -130.33546363 109.22861586 -129.11748862 109.2255547 C-125.83969608 109.21838279 -122.56193549 109.21569604 -119.2841363 109.21495724 C-115.74754406 109.21310387 -112.21096312 109.20555514 -108.67437744 109.19882202 C-100.94291241 109.18524994 -93.21145257 109.17921581 -85.47997761 109.17481136 C-80.65107679 109.17204718 -75.82217797 109.16780952 -70.9932785 109.16330719 C-57.61943309 109.15111627 -44.24558928 109.14081642 -30.87173843 109.1374321 C-30.01607083 109.13721253 -29.16040323 109.13699297 -28.27880631 109.13676675 C-26.99226339 109.13643933 -26.99226339 109.13643933 -25.6797297 109.1361053 C-23.9417599 109.13566184 -22.20379011 109.13521527 -20.46582031 109.13476562 C-19.60373033 109.1345442 -18.74164035 109.13432277 -17.85342643 109.13409463 C-3.88563661 109.13014691 10.08210103 109.1126929 24.0498707 109.0894061 C38.39558195 109.06568254 52.74126704 109.0532298 67.08699822 109.05206418 C75.13950712 109.05114801 83.19194802 109.04541038 91.24443817 109.02724457 C98.10141479 109.01183005 104.95830239 109.0067311 111.81529304 109.01498267 C115.31211998 109.01888434 118.80876772 109.0179834 122.30557251 109.00392532 C126.10114703 108.99123569 129.89626221 108.99706707 133.6918335 109.00750732 C134.79058233 108.99945092 135.88933116 108.99139452 137.02137542 108.98309398 C144.6622201 109.03221687 151.09214611 110.06896168 157.625 114.1875 C162.87806513 119.59506704 163.86592362 125.77423633 163.8918457 133.03564453 C163.89888016 134.14674591 163.90591461 135.25784729 163.91316223 136.40261841 C163.91732651 137.59233246 163.92149078 138.78204651 163.92578125 140.0078125 C163.94896352 142.52995641 163.97308018 145.05209187 163.99804688 147.57421875 C164.03327399 151.54872431 164.06257697 155.52291528 164.07592773 159.49755859 C164.09133697 163.33469417 164.13148333 167.17091631 164.17578125 171.0078125 C164.17291862 172.79845627 164.17291862 172.79845627 164.16999817 174.62527466 C164.18648911 175.73007172 164.20298004 176.83486877 164.2199707 177.97314453 C164.22877007 179.43278122 164.22877007 179.43278122 164.23774719 180.92190552 C164.54125555 183.51057428 164.54125555 183.51057428 166.62297058 185.21261597 C168.72078577 186.57980657 168.72078577 186.57980657 171.3125 186.375 C174.75829853 184.96133906 175.25438456 183.81813963 176.75 180.375 C177.18674591 176.54895905 177.14617579 172.74560624 177.11328125 168.8984375 C177.11377975 167.77740631 177.11427826 166.65637512 177.11479187 165.50137329 C177.11245313 163.12931548 177.10273647 160.7572551 177.08618164 158.38525391 C177.06272116 154.78394923 177.06560649 151.1833923 177.07226562 147.58203125 C177.06668379 145.27082898 177.05957074 142.9596298 177.05078125 140.6484375 C177.05214836 139.05097183 177.05214836 139.05097183 177.05354309 137.42123413 C176.93979087 125.19981116 175.43611596 114.97657438 167.15234375 105.55859375 C157.62058077 96.56764001 145.4004223 96.22378198 133.04864502 96.24128723 C131.87436219 96.23902167 130.70007936 96.23675612 129.4902122 96.23442191 C126.24360048 96.22919839 122.9970237 96.22843503 119.75040913 96.22961628 C116.24380919 96.22982082 112.73721744 96.22429645 109.23062134 96.21955872 C102.36512084 96.21126296 95.49962893 96.20850436 88.63412383 96.20794634 C83.05133634 96.20747064 77.46855167 96.20541322 71.88576508 96.20224571 C56.04563479 96.19344187 40.20551128 96.18882588 24.36537853 96.18957619 C23.51197158 96.18961614 22.65856464 96.1896561 21.77929688 96.18969727 C20.49761718 96.18975859 20.49761718 96.18975859 19.19004497 96.18982115 C5.34660985 96.19022748 -8.49679806 96.1806604 -22.34022531 96.1665589 C-36.56622808 96.15218245 -50.79221759 96.14528942 -65.01822782 96.14615268 C-73.00033038 96.14648422 -80.98240442 96.14375586 -88.96450043 96.13297462 C-95.76133865 96.12385289 -102.5581354 96.12170807 -109.3549771 96.12848405 C-112.8196234 96.13174089 -116.28419023 96.1318363 -119.74882889 96.1231308 C-123.51285998 96.11539927 -127.27668373 96.12006362 -131.04071045 96.12776184 C-132.12448746 96.12261828 -133.20826448 96.11747471 -134.32488322 96.11217529 C-147.1434865 96.1699241 -158.46834938 97.9175734 -167.625 107.625 Z M-13.9453125 150.046875 C-16.8707781 153.36672663 -19.56000399 156.86403736 -22.25 160.375 C-23.14247655 161.51073221 -24.03698468 162.64487113 -24.93359375 163.77734375 C-26.75397041 166.08021791 -28.56350791 168.39106208 -30.3671875 170.70703125 C-33.44217689 174.63949003 -36.59271608 178.50851153 -39.75 182.375 C-43.79991424 187.3372445 -47.80805359 192.32654232 -51.75 197.375 C-56.2320011 203.11510668 -60.80956557 208.77193246 -65.4140625 214.4140625 C-68.90530083 218.69951618 -72.34818888 223.01829453 -75.75 227.375 C-79.69195359 232.42346688 -83.70047577 237.4124294 -87.75 242.375 C-91.95530147 247.53248049 -96.13232726 252.70969815 -100.25 257.9375 C-100.68248047 258.48470703 -101.11496094 259.03191406 -101.56054688 259.59570312 C-102.8031459 261.17948379 -104.03085162 262.77310414 -105.25 264.375 C-105.71849365 264.98875488 -106.1869873 265.60250977 -106.66967773 266.23486328 C-109.47008072 269.80024241 -109.47008072 269.80024241 -110.3125 274.125 C-108.98096497 276.94472124 -108.10122162 278.06497925 -105.25 279.375 C-99.7573295 278.30529483 -97.32519689 275.60857439 -94.1875 271.25 C-93.22692954 269.97140059 -92.26461985 268.69410637 -91.30078125 267.41796875 C-90.80271973 266.75200684 -90.3046582 266.08604492 -89.79150391 265.39990234 C-87.24052166 262.04896051 -84.55223585 258.81273992 -81.875 255.5625 C-77.40652598 250.10360465 -73.06925961 244.56278069 -68.8125 238.9375 C-63.81347568 232.335215 -58.63366203 225.91115642 -53.34228516 219.54150391 C-49.26482228 214.62787144 -45.28731328 209.64875135 -41.36279297 204.61254883 C-37.88101438 200.15370806 -34.32718834 195.75755415 -30.75 191.375 C-23.09363295 181.98761837 -15.44198681 172.57096978 -8.37109375 162.73046875 C-7.25 161.375 -7.25 161.375 -5.25 160.375 C-5.25170874 161.27469433 -5.25170874 161.27469433 -5.253452 162.19256431 C-5.32053856 197.71555271 -5.37203553 233.23853024 -5.40319599 268.76156877 C-5.40694826 273.02374452 -5.41083121 277.28592014 -5.41479492 281.5480957 C-5.41558185 282.39664337 -5.41636878 283.24519103 -5.41717956 284.11945226 C-5.43024514 297.87174726 -5.4539053 311.62400476 -5.48145839 325.37627748 C-5.50948058 339.4799744 -5.5261695 353.58365163 -5.53226548 367.68737525 C-5.53638856 376.39508163 -5.54942612 385.10268203 -5.5737494 393.8103558 C-5.5895673 399.77582125 -5.59440935 405.74123166 -5.59050413 411.70671657 C-5.5885764 415.15213935 -5.591599 418.59737652 -5.60761642 422.04276657 C-5.62244211 425.77282764 -5.6189897 429.50242744 -5.61076355 433.23249817 C-5.61950207 434.32878896 -5.6282406 435.42507975 -5.63724393 436.55459148 C-5.63127078 437.54984897 -5.62529764 438.54510646 -5.61914349 439.57052326 C-5.62085223 440.86290141 -5.62085223 440.86290141 -5.62259549 442.1813882 C-5.16400596 444.8812797 -4.43821989 445.76691773 -2.25 447.375 C1.8428867 447.90507442 1.8428867 447.90507442 5.41442853 446.1518423 C7.16108582 443.82809204 7.12296808 442.46318796 7.11914349 439.57052326 C7.12511663 438.57526577 7.13108978 437.58000828 7.13724393 436.55459148 C7.1285054 435.45830069 7.11976688 434.36200989 7.11076355 433.23249817 C7.11332682 432.07020602 7.1158901 430.90791388 7.11853105 429.71040076 C7.12262647 426.47899815 7.11321927 423.24795421 7.09819686 420.01659405 C7.08526628 416.53399662 7.08962384 413.05141655 7.09190369 409.56880188 C7.09347831 403.53321664 7.0840494 397.49772854 7.06719017 391.46216774 C7.04283031 382.73572863 7.034998 374.00933658 7.0312262 365.28286716 C7.02465697 351.1254818 7.00468305 336.96814824 6.97631836 322.81079102 C6.94878997 309.05656189 6.92755042 295.30234681 6.91479492 281.5480957 C6.91400675 280.70057713 6.91321858 279.85305856 6.91240653 278.9798576 C6.90849147 274.72819336 6.90470033 270.47652901 6.90097082 266.2248646 C6.86986024 230.94153947 6.81701164 195.65827451 6.75 160.375 C12.24113006 165.83356899 12.24113006 165.83356899 14.6953125 168.87109375 C15.20900391 169.50466797 15.72269531 170.13824219 16.25195312 170.79101562 C16.78755859 171.45810547 17.32316406 172.12519531 17.875 172.8125 C18.44412109 173.51697266 19.01324219 174.22144531 19.59960938 174.94726562 C23.63843037 179.95864552 27.62295017 185.01116506 31.58447266 190.08374023 C35.08643264 194.55818604 38.65767275 198.9728966 42.25 203.375 C48.63153998 211.19844133 54.87199109 219.12572065 61.08398438 227.08398438 C66.94503705 234.58784305 72.87911827 242.02391463 78.90258789 249.39819336 C82.03516848 253.24037176 85.12552207 257.11020347 88.16918945 261.02319336 C89.94306213 263.30122259 91.73243375 265.56664818 93.52734375 267.828125 C94.69458634 269.30489198 95.84766694 270.79281979 97 272.28125 C98.82365743 274.51937503 100.51163413 276.55296038 102.75 278.375 C106.0911568 278.82133779 106.0911568 278.82133779 108.75 277.375 C110.97383648 275.52207453 110.97383648 275.52207453 111.26953125 272.75 C110.50161349 267.76142144 107.7175583 265.08118264 104.4375 261.375 C103.1392539 259.85664001 101.84239475 258.33709312 100.546875 256.81640625 C99.90041016 256.06504395 99.25394531 255.31368164 98.58789062 254.53955078 C96.03290814 251.53045478 93.60249999 248.43422999 91.1875 245.3125 C87.27027251 240.28154388 83.28199909 235.31442042 79.25 230.375 C74.74232786 224.85166343 70.30157233 219.28315403 65.9140625 213.6640625 C62.41223753 209.19063292 58.84188836 204.77632798 55.25 200.375 C50.74240027 194.85160315 46.30157358 189.28315564 41.9140625 183.6640625 C37.87743303 178.50744336 33.75213942 173.42552313 29.59912109 168.36230469 C26.91493087 165.08047211 24.27644769 161.77821018 21.7265625 158.390625 C21.24509766 157.75640625 20.76363281 157.1221875 20.26757812 156.46875 C19.37277197 155.28404172 18.48774461 154.0918484 17.61523438 152.890625 C13.61428089 147.6151998 9.33971301 145.05426899 2.9375 143.375 C-3.91448696 142.92698547 -9.10633826 145.24997879 -13.9453125 150.046875 Z " fill="#000000" transform="translate(255.25,-0.375)"/>
</svg>
